<svg xmlns="http://www.w3.org/2000/svg"  viewBox="0 0 72 72" width="512px" height="512px"><path d="M36,12c13.234,0,24,10.522,24,23.455S49.234,59,36,59c-2.758,0-5.467-0.552-8.067-1.463c0,0-3.719,1.803-4.239,2.069	c-0.401,0.205-1.629,0.647-2.426,0.162c-0.724-0.441-0.987-1.513-0.987-1.97c0-0.457,0-4.637,0-4.637	C15.004,48.691,12,42.298,12,35.455C12,22.522,22.766,12,36,12z M46.178,32.66c0.367-0.586,0.964-1.29,0.964-1.898	c0-0.508-0.396-0.762-0.812-0.762c-0.408,0-0.874,0.356-1.442,0.813c-0.569,0.458-2.958,2.255-3.608,2.748	c-0.598,0.454-1.465,1.108-1.972,1.108c-0.507,0-1.184-0.451-1.521-0.733c-0.45-0.375-2.171-1.659-2.93-2.217	c-0.76-0.557-1.197-0.96-2.385-0.96c-1.469,0-2.145,1.376-2.536,1.956c-0.354,0.526-3.433,5.506-4.014,6.367	c-0.692,1.025-1.165,1.654-1.165,2.11c0,0.456,0.456,0.76,1.013,0.76s1.129-0.586,1.81-1.148c0.681-0.562,3.094-2.356,3.702-2.862	s0.992-0.755,1.379-0.755c0.386,0,0.587,0.14,1.106,0.548c0.568,0.447,2.223,1.695,3.207,2.406c0.923,0.666,1.289,1.002,2.42,1.002	s2.399-1.36,2.858-2.169C42.768,38.06,45.811,33.246,46.178,32.66z"/></svg>